name rise37.2698peak67.6939fall79.5734.mot
datacolumns 19
datarows 24
range 8.47496700000000 8.51330100000000
endheader
time	ground_force1_vx	ground_force1_vy	ground_force1_vz	ground_force1_px	ground_force1_py	ground_force1_pz	ground_force2_vx	ground_force2_vy	ground_force2_vz	ground_force2_px	ground_force2_py	ground_force2_pz	ground_torque1_x	ground_torque1_y	ground_torque1_z	ground_torque2_x	ground_torque2_y	ground_torque2_z	
8.47496700000000	8.47635500000000	711.42416800000001	38.83815800000000	0.21278200000000	0.00000000000000	0.09107200000000	0.00000000000000	0.00000000000000	0.00000000000000	0.00000000000000	0.00000000000000	0.00000000000000	0.00000000000000	14.38288500000000	0.00000000000000	0.00000000000000	0.00000000000000	0.00000000000000	
8.47663600000000	8.07195700000000	712.36549200000002	38.81527500000000	0.21183700000000	0.00000000000000	0.09106400000000	0.00000000000000	0.00000000000000	0.00000000000000	0.00000000000000	0.00000000000000	0.00000000000000	0.00000000000000	14.38893800000000	0.00000000000000	0.00000000000000	0.00000000000000	0.00000000000000	
8.47830300000000	7.65841600000000	713.33826799999997	38.79658600000000	0.21087600000000	0.00000000000000	0.09105800000000	0.00000000000000	0.00000000000000	0.00000000000000	0.00000000000000	0.00000000000000	0.00000000000000	0.00000000000000	14.39855000000000	0.00000000000000	0.00000000000000	0.00000000000000	0.00000000000000	
8.47997100000000	7.23575200000000	714.34090500000002	38.78198700000000	0.20989900000000	0.00000000000000	0.09105300000000	0.00000000000000	0.00000000000000	0.00000000000000	0.00000000000000	0.00000000000000	0.00000000000000	0.00000000000000	14.41169300000000	0.00000000000000	0.00000000000000	0.00000000000000	0.00000000000000	
8.48163500000000	6.80402500000000	715.37182299999995	38.77137300000000	0.20890800000000	0.00000000000000	0.09105000000000	0.00000000000000	0.00000000000000	0.00000000000000	0.00000000000000	0.00000000000000	0.00000000000000	0.00000000000000	14.42833300000000	0.00000000000000	0.00000000000000	0.00000000000000	0.00000000000000	
8.48330100000000	6.36332600000000	716.42945799999995	38.76463600000000	0.20790300000000	0.00000000000000	0.09104800000000	0.00000000000000	0.00000000000000	0.00000000000000	0.00000000000000	0.00000000000000	0.00000000000000	0.00000000000000	14.44843400000000	0.00000000000000	0.00000000000000	0.00000000000000	0.00000000000000	
8.48496900000000	5.91378700000000	717.51226399999996	38.76166800000000	0.20688500000000	0.00000000000000	0.09104800000000	0.00000000000000	0.00000000000000	0.00000000000000	0.00000000000000	0.00000000000000	0.00000000000000	0.00000000000000	14.47195600000000	0.00000000000000	0.00000000000000	0.00000000000000	0.00000000000000	
8.48663700000000	5.45556700000000	718.61872300000005	38.76236100000000	0.20585600000000	0.00000000000000	0.09104900000000	0.00000000000000	0.00000000000000	0.00000000000000	0.00000000000000	0.00000000000000	0.00000000000000	0.00000000000000	14.49885700000000	0.00000000000000	0.00000000000000	0.00000000000000	0.00000000000000	
8.48830100000000	4.98886000000000	719.74734200000000	38.76660800000000	0.20481600000000	0.00000000000000	0.09105100000000	0.00000000000000	0.00000000000000	0.00000000000000	0.00000000000000	0.00000000000000	0.00000000000000	0.00000000000000	14.52908900000000	0.00000000000000	0.00000000000000	0.00000000000000	0.00000000000000	
8.48997000000000	4.51388800000000	720.89666199999999	38.77430100000000	0.20376800000000	0.00000000000000	0.09105400000000	0.00000000000000	0.00000000000000	0.00000000000000	0.00000000000000	0.00000000000000	0.00000000000000	0.00000000000000	14.56260200000000	0.00000000000000	0.00000000000000	0.00000000000000	0.00000000000000	
8.49163200000000	4.03090300000000	722.06525999999997	38.78533600000000	0.20271300000000	0.00000000000000	0.09105900000000	0.00000000000000	0.00000000000000	0.00000000000000	0.00000000000000	0.00000000000000	0.00000000000000	0.00000000000000	14.59934300000000	0.00000000000000	0.00000000000000	0.00000000000000	0.00000000000000	
8.49330600000000	3.54018000000000	723.25174900000002	38.79960900000000	0.20165100000000	0.00000000000000	0.09106400000000	0.00000000000000	0.00000000000000	0.00000000000000	0.00000000000000	0.00000000000000	0.00000000000000	0.00000000000000	14.63925400000000	0.00000000000000	0.00000000000000	0.00000000000000	0.00000000000000	
8.49496700000000	3.04201800000000	724.45478600000001	38.81702100000000	0.20058500000000	0.00000000000000	0.09107100000000	0.00000000000000	0.00000000000000	0.00000000000000	0.00000000000000	0.00000000000000	0.00000000000000	0.00000000000000	14.68227400000000	0.00000000000000	0.00000000000000	0.00000000000000	0.00000000000000	
8.49664000000000	2.53674000000000	725.67307300000004	38.83747500000000	0.19951500000000	0.00000000000000	0.09107800000000	0.00000000000000	0.00000000000000	0.00000000000000	0.00000000000000	0.00000000000000	0.00000000000000	0.00000000000000	14.72833900000000	0.00000000000000	0.00000000000000	0.00000000000000	0.00000000000000	
8.49830300000000	2.02468800000000	726.90535699999998	38.86088000000000	0.19844300000000	0.00000000000000	0.09108600000000	0.00000000000000	0.00000000000000	0.00000000000000	0.00000000000000	0.00000000000000	0.00000000000000	0.00000000000000	14.77738000000000	0.00000000000000	0.00000000000000	0.00000000000000	0.00000000000000	
8.49996900000000	1.50621800000000	728.15043300000002	38.88714900000000	0.19737100000000	0.00000000000000	0.09109500000000	0.00000000000000	0.00000000000000	0.00000000000000	0.00000000000000	0.00000000000000	0.00000000000000	0.00000000000000	14.82932700000000	0.00000000000000	0.00000000000000	0.00000000000000	0.00000000000000	
8.50163200000000	0.98170600000000	729.40714900000000	38.91620100000000	0.19630000000000	0.00000000000000	0.09110400000000	0.00000000000000	0.00000000000000	0.00000000000000	0.00000000000000	0.00000000000000	0.00000000000000	0.00000000000000	14.88410200000000	0.00000000000000	0.00000000000000	0.00000000000000	0.00000000000000	
8.50330000000000	0.45153900000000	730.67440199999999	38.94796100000000	0.19523100000000	0.00000000000000	0.09111400000000	0.00000000000000	0.00000000000000	0.00000000000000	0.00000000000000	0.00000000000000	0.00000000000000	0.00000000000000	14.94162900000000	0.00000000000000	0.00000000000000	0.00000000000000	0.00000000000000	
8.50497200000000	-0.08388400000000	731.95114400000000	38.98236100000000	0.19416600000000	0.00000000000000	0.09112400000000	0.00000000000000	0.00000000000000	0.00000000000000	0.00000000000000	0.00000000000000	0.00000000000000	0.00000000000000	15.00182500000000	0.00000000000000	0.00000000000000	0.00000000000000	0.00000000000000	
8.50663600000000	-0.62415600000000	733.23637900000006	39.01934200000000	0.19310500000000	0.00000000000000	0.09113500000000	0.00000000000000	0.00000000000000	0.00000000000000	0.00000000000000	0.00000000000000	0.00000000000000	0.00000000000000	15.06460400000000	0.00000000000000	0.00000000000000	0.00000000000000	0.00000000000000	
8.50830200000000	-1.16886100000000	734.52916600000003	39.05885100000000	0.19205000000000	0.00000000000000	0.09114600000000	0.00000000000000	0.00000000000000	0.00000000000000	0.00000000000000	0.00000000000000	0.00000000000000	0.00000000000000	15.12987800000000	0.00000000000000	0.00000000000000	0.00000000000000	0.00000000000000	
8.50996600000000	-1.71758000000000	735.82861700000001	39.10084600000000	0.19100100000000	0.00000000000000	0.09115700000000	0.00000000000000	0.00000000000000	0.00000000000000	0.00000000000000	0.00000000000000	0.00000000000000	0.00000000000000	15.19755500000000	0.00000000000000	0.00000000000000	0.00000000000000	0.00000000000000	
8.51163700000000	-2.26989000000000	737.13389800000004	39.14529300000000	0.18996100000000	0.00000000000000	0.09116800000000	0.00000000000000	0.00000000000000	0.00000000000000	0.00000000000000	0.00000000000000	0.00000000000000	0.00000000000000	15.26754000000000	0.00000000000000	0.00000000000000	0.00000000000000	0.00000000000000	
8.51330100000000	-2.82536600000000	738.44422799999995	39.19217000000000	0.18893000000000	0.00000000000000	0.09118000000000	0.00000000000000	0.00000000000000	0.00000000000000	0.00000000000000	0.00000000000000	0.00000000000000	0.00000000000000	15.33973600000000	0.00000000000000	0.00000000000000	0.00000000000000	0.00000000000000	
